<?xml version="1.0" encoding="UTF-8"?><svg id="a" xmlns="http://www.w3.org/2000/svg" width="1291.4104" height="346.0001" xmlns:xlink="http://www.w3.org/1999/xlink" viewBox="0 0 1291.4104 346.0001"><defs><linearGradient id="b" x1="854.2235" y1="244.1059" x2="1114.9971" y2="20.5857" gradientUnits="userSpaceOnUse"><stop offset="0" stop-color="#b76e79"/><stop offset="1" stop-color="#de9c91"/></linearGradient></defs><path d="M814.7893,206.8428c-1.4884-4.3232-4.6605-6.287-5.6806-6.6423-1.657-.6063-3.2812-.1175-3.3094.7815-.0361.5465.5271,1.2152,1.2107,2.152.5789.7966,1.1892,1.7869,1.5747,2.7276,1.8661,4.949-1.7469,11.7505-6.2344,15.5006-7.6067,5.644-17.3706,7.1585-26.6105,9.3334-18.6598,4.317-41.5443,8.2649-56.9076,14.7405-1.2931.5042-2.7642,1.2439-4.1554,2.1677,2.7533-10.4712,9.547-21.4116,9.6321-21.6766,1.4002-.6938,2.7666-1.4237,4.0887-2.1934,9.2771-5.4018,19.6383-14.1389,25.5205-23.111,5.7783-8.8936,9.5642-18.7453,11.9268-29.0229,4.8496-2.3716,8.4755-5.5191,10.2859-9.8925,2.1167-4.8154,1.539-10.1945-.251-14.3267-1.0264-2.1389-1.823-3.498-3.2149-4.2652-1.3915-.7669-1.6688,1.2527-1.1786,2.6846,2.3791,5.8061-.5742,11.9227-5.3575,16.447-5.5394,4.9684-12.723,7.1445-19.8262,8.7647-6.1023,1.5113-12.7787,2.9558-19.5214,4.474-.1443-.7362-.291-1.4741-.4487-2.2228-2.0069-9.5291-5.9054-19.0449-8.0986-28.6348,1.5998-1.0917,3.1506-2.1818,4.6241-3.2741,4.6311-3.4765,8.9332-7.3377,13.0838-11.3729,6.4141-6.2715,12.5477-12.9036,16.4364-21.0092,3.2537-6.1244,3.3941-15.209-3.4514-18.7519-4.1201-2.1795-10.0537-1.0886-14.3518,1.1458-5.0845,2.577-8.5939,6.8953-11.8088,11.4968-8.3453,11.1864-12.1555,25.7947-9.3709,39.4088-10.4467,5.4181-21.7993,9.9403-32.6005,17.3637-12.0982,8.176-23.2132,20.0366-25.6009,34.5425-2.4807,14.2098,2.3626,29.6973,16.9168,35.4401,13.4972,5.1906,28.3052,4.6476,41.3847.6163-.3349.7711-.6699,1.5415-1.0001,2.2971-1.8006,4.1293-3.4129,9.3879-4.0193,14.6287-1.1703-.7116-2.3626-1.306-3.4349-1.7239-15.3633-6.4756-38.2475-10.4235-56.9076-14.7405-9.2399-2.175-19.0037-3.6894-26.6101-9.3334-4.4876-3.75-8.1009-10.5516-6.2344-15.5006.3851-.9407.9954-1.931,1.5747-2.7276.6832-.9368,1.2468-1.6055,1.2103-2.152-.0282-.8989-1.6523-1.3878-3.3094-.7815-1.0197.3553-4.1922,2.3191-5.6802,6.6423-1.368,3.9732-2.405,12.6787,4.639,20.1385,15.2582,15.018,51.609,11.2348,85.7783,21.6105,2.5022.7664,5.6399,2.0953,7.2957,3.3939.5703.4208,1.0656.8621,1.4939,1.3243.1792,2.7538.7444,5.3718,1.8606,7.6567.6726,1.9588,4.5895,6.2658,9.3728,5.0861,3.7491-.9248-4.9206-1.156-5.8579-8.5539-.022-.1743-.0318-.3553-.0478-.5326.455-1.9143,1.5355-3.5626,3.4569-4.9806,1.6559-1.2986,4.7939-2.6276,7.2957-3.3939,34.1697-10.3757,70.5201-6.5925,85.7783-21.6105,7.0439-7.4599,6.007-16.1654,4.6393-20.1385ZM760.1659,173.8785c-6.7137,15.5953-18.3554,29.1633-32.4954,38.7969,1.9379-10.6781,1.8379-20.9706-.0792-32.6825,11.8378-1.6925,23.5078-3.1133,32.5747-6.1144ZM718.8271,119.1629c3.1992-9.5509,10.8808-25.6896,22.839-25.0026,6.7572,1.3066,6.4454,9.7142,4.415,14.7375-6.6074,16.1846-16.9392,24.6357-28.7307,31.2414-1.1354-6.9357-1.097-13.9167,1.4766-20.9763ZM666.1188,220.612c-7.5609-6.5602-8.1421-17.7444-4.9457-26.6261,8.2896-20.6874,33.8826-34.1309,53.4017-46.9126,1.9904,7.4432,4.5107,14.8415,5.6606,22.4172.4514,2.3803.8821,4.7851,1.2656,7.2032-9.7497,2.265-19.3645,4.7605-27.3113,7.9197-4.1326,1.7651-8.8304,4.1522-10.9557,8.276-1.7167,3.3555-1.8065,8.9728,1.0052,12.0272,1.1625,1.4696,3.8895,2.7242,4.7496,2.6825.1992.008.3777-.0267.3169-.2275-.1483-.6511-3.1772-2.4852-4.2169-4.916-1.6841-4.2148.6746-9.4566,4.0958-11.9657,1.3268-1.014,2.8799-1.8653,4.5221-2.6207,8.2923-3.5388,18.2648-5.5063,28.3899-7.0647,1.1911,9.0326,1.5061,18.1703-.495,26.8722-.8021,3.4863-1.9437,7.0482-3.2412,10.5904-14.0726,7.0804-40.1575,11.7566-52.2416,2.3448Z" fill="#422549"/><path d="M169.1956,220.2877c-4.0032,0-7.8249-.668-11.4645-2.0019-3.6396-1.336-6.6138-3.4575-8.9169-6.3693-2.3062-2.9113-3.4575-6.6133-3.4575-11.1004,0-1.092.2729-2.0927.8186-3.0026.5463-.9099,1.061-1.3649,1.5469-1.3649.9697,0,1.4562,1.4556,1.4562,4.3674,0,4.1255,1.7568,7.339,5.2773,9.6447,2.789,1.8198,6.5509,2.7297,11.2825,2.7297s9.6447-.8501,14.7405-2.5476c5.0952-1.7002,9.9459-4.126,14.5579-7.2792,5.4594-3.6396,27.0781-24.4077,33.8116-31.2634,6.733-6.8526,13.7393-14.3448,21.0185-22.4741-5.8236-.6061-11.6183-1.2741-17.3794-2.0019-5.7632-.7278-11.5553-1.092-17.3789-1.092-3.8841,0-7.7651.3951-11.6466,1.1828-3.8841.7908-7.4015,2.2748-10.5546,4.4587-3.1563,2.1834-5.5218,5.3996-7.0971,9.6447-.1223.4864-.2729,1.0322-.455,1.6377-.1821.6087-.2729,1.2143-.2729,1.8198,0,1.2143.3012,2.3062.9099,3.276.2414.7278.3636,1.1544.3636,1.2735,0,1.092-.4859,1.6377-1.4556,1.6377-.8501,0-1.5186-.4235-2.0019-1.2735-1.2143-2.184-1.8198-4.9735-1.8198-8.3712,0-6.4291,1.1828-11.3423,3.5488-14.7405,2.3655-3.3945,5.5502-5.7008,9.554-6.915,4.0032-1.2111,8.3082-1.8198,12.9202-1.8198,2.0617,0,4.2142.0913,6.4606.2729,2.2433.1821,4.4582.3957,6.6422.637,5.3371.4864,10.8558,1.305,16.5598,2.4568,5.7013,1.1544,11.4021,2.3372,17.106,3.5483,6.3069-7.3983,12.5256-14.8596,18.653-22.3834,6.1248-7.5206,11.857-14.6492,17.1968-21.3821,5.3371-6.7335,9.8866-12.5256,13.6485-17.3789.1196-.3642.3642-.6061.7278-.7283.2419-.2414.424-.3636.5463-.3636,1.3334-.7278,3.0309-1.3649,5.0952-1.9111,2.0612-.5457,3.4575-.8186,4.1853-.8186,1.2116,0,1.8198.668,1.8198,2.0019,0,.3636-.3043,1.0322-.9099,2.0014-6.0676,10.3133-11.2541,20.8679-15.5591,31.6644-4.3076,10.7992-8.0978,21.9001-11.3738,33.3022l-.3636,1.2741c.7278,0,1.484.031,2.2748.0908.7876.0624,1.484.0908,2.0927.0908,5.2149.3642,9.6447-.1816,13.2843-1.6377,2.6673-.9697,4.4871-2.3655,5.4594-4.1853.3636-.4833.6654-.7278.9099-.7278.6056,0,1.029.3353,1.2735,1.0007.2419.668.1821,1.305-.1816,1.9106-1.3365,2.3062-3.7026,4.0038-7.0971,5.0958-1.9421.8501-4.1575,1.3958-6.6427,1.6377-2.4878.2445-5.0669.3043-7.7336.1821h-1.092l-2.184-.1821h-1.092c-1.8198,6.6737-3.0933,13.5887-3.8212,20.7456-.1223.6082-.1821,1.1828-.1821,1.7285v1.729c0,6.915,1.8796,10.3726,5.6415,10.3726,2.4254,0,5.3057-1.0915,8.6435-3.2754,3.3358-2.1834,6.7335-4.8507,10.191-8.007,3.4575-3.1532,6.5797-6.2785,9.3719-9.3719,2.7895-3.0939,4.8512-5.5502,6.1872-7.37.2419-.2419.6056-.3642,1.092-.3642,1.2111,0,1.5753.668,1.092,2.0019-.2445.3636-1.2741,1.7915-3.0939,4.2766-1.8198,2.4878-4.3076,5.4589-7.4608,8.9169-3.1563,3.4575-6.8557,6.8867-11.1009,10.2818-3.3977,2.6699-6.7644,4.3958-10.0997,5.186-3.3384.7876-5.8545,1.1833-7.5521,1.1833-3.3982,0-6.0964-1.5469-8.0983-4.6408-2.0019-3.0933-3.0026-7.0656-3.0026-11.9195,0-3.5173.3642-7.1569,1.092-10.9188.7278-3.7587,1.5753-7.5206,2.5476-11.2825-3.52-.3642-7.0971-.7567-10.7367-1.1828-3.6396-.424-7.2792-.8789-10.9188-1.3649-7.2792,8.8571-14.5296,17.137-21.7463,24.8397-7.2194,7.7058-29.5061,29.4436-35.813,34.1752-4.7316,3.3951-9.6164,6.034-14.6492,7.9162-5.0359,1.8796-10.0997,2.8205-15.1955,2.8205ZM278.9829,149.6262c2.184-8.4908,4.7599-17.0153,7.7342-25.568,2.9716-8.5533,5.9144-16.3473,8.8261-23.3846l.9099-2.1834c-5.218,7.2787-10.9503,15.0443-17.1973,23.2933-6.2497,8.2516-12.5875,16.4407-19.0166,24.5668,3.1532.6087,6.3069,1.1828,9.4632,1.729,3.1532.5457,6.2465,1.0631,9.2806,1.5469Z" fill="#422549"/><path d="M312.6461,192.0269c-.8469,0-1.0915-.4261-.7278-1.2735.3642-.7278,1.0322-2.3944,2.0019-5.0045.9697-2.6074,2.0927-5.7323,3.3667-9.3719,1.2735-3.6396,2.576-7.3988,3.9125-11.283,1.3334-3.881,2.576-7.5206,3.7304-10.9183,1.1518-3.3951,2.0927-6.0655,2.821-8.0075.2414-.7278.4833-1.7883.7278-3.1841.2414-1.3937.7562-2.6673,1.5469-3.8217.7876-1.1518,2.1525-1.729,4.094-1.729,3.6396,0,5.4594.8501,5.4594,2.5476,0,.6087-.3038,1.6382-.9099,3.0939-1.4556,3.2754-3.0335,7.0373-4.7311,11.2825-1.7007,4.2483-3.2161,8.2516-4.5495,12.0108-1.3365,3.7619-2.3661,6.6737-3.0939,8.7348,1.2116-1.6975,3.1847-4.1229,5.9144-7.2792,2.7297-3.1532,5.7921-6.5509,9.1898-10.1905,3.3951-3.6396,6.9439-7.1569,10.6459-10.5552,3.6994-3.3945,7.1569-6.1557,10.3726-8.2799,3.2135-2.121,5.9737-3.1847,8.2804-3.1847,2.9113,0,4.3679,1.5784,4.3679,4.7316,0,1.092-.3043,2.7297-.911,4.9132-1.0915,3.0341-2.4873,5.9773-4.1853,8.8261-1.7002,2.852-3.2156,5.8545-4.5485,9.0082-2.3068,5.7039-3.6396,10.3127-4.0048,13.8301-.1217.4864-.1816.9414-.1816,1.3649v1.3649c0,4.8539,1.6382,7.2792,4.9126,7.2792,1.8198,0,4.2462-1.092,7.2792-3.2754,3.033-2.184,6.1563-4.7914,9.3719-7.8255,3.2135-3.0309,6.0975-5.9737,8.6456-8.8256,2.546-2.8493,4.305-5.0045,5.2768-6.4606.3631-.3636.7283-.5457,1.0915-.5457.4828,0,.8795.1821,1.1838.5457.3002.3642.3316.8506.0903,1.4562-1.0915,2.0643-2.9427,4.6403-5.5497,7.7342-2.6111,3.0933-5.4909,6.1872-8.6456,9.2806-3.1547,3.0939-6.2486,5.7323-9.2795,7.9162-1.8198,1.2143-4.0657,2.3062-6.7335,3.2754-2.6699.9697-5.3398,1.3937-8.007,1.2741-3.3982-.3642-5.8236-1.5469-7.2792-3.5488-1.4562-2.0014-2.184-4.3958-2.184-7.1879,0-3.2754.637-6.7618,1.9111-10.4639,1.2735-3.6994,2.6982-7.1879,4.2761-10.4639,1.5753-3.2754,2.8493-5.7606,3.8212-7.4608.9697-1.9394,1.4567-3.458,1.4567-4.5495,0-.9697-.4261-1.4562-1.2741-1.4562-.8501,0-2.1242.5463-3.8217,1.6377-1.7002,1.092-4.0032,2.9742-6.915,5.6415-2.6699,2.3062-5.5218,5.3088-8.5533,9.0082-3.0335,3.702-5.9768,7.4923-8.8256,11.3732-2.852,3.8841-5.3403,7.2199-7.4613,10.0089-2.1242,2.7921-3.6113,4.4304-4.4587,4.9137-.6082.3636-1.973.9697-4.094,1.8198-2.1242.8475-3.7309,1.2735-4.8229,1.2735Z" fill="#422549"/><path d="M415.2807,191.6632c-2.184.3636-4.3679.5457-6.5509.5457-5.3408,0-9.7675-1.2735-13.2843-3.8217-3.521-2.5476-5.2778-6.2465-5.2778-11.1004,0-2.9118.8469-6.4291,2.5481-10.5546,1.2111-2.7895,3.457-6.0057,6.7324-9.6453s7.0976-7.1879,11.4645-10.6454c4.3679-3.4575,8.7947-6.3069,13.2854-8.5533,4.4865-2.2433,8.5522-3.3667,12.1918-3.3667,1.3339,0,2.5481.1821,3.6396.5463,1.3339.4859,2.4852,1.1544,3.458,2.0019.9697.8501,1.4556,2.1236,1.4556,3.8212v1.092c0,.3642-.1228.7908-.3642,1.2741,0,.3636-.2729,1.1544-.8186,2.3655-.5457,1.2143-1.1544,2.2748-1.8198,3.1847-.6685.9099-1.2457,1.1229-1.7285.637-.487-.3642-.7283-.8475-.7283-1.4562,0-.6056.1511-1.3019.4544-2.0927.3023-.7876.4555-1.484.4555-2.0927,0-.8475-.213-1.6661-.637-2.4568-.4261-.7876-1.1229-1.1828-2.0927-1.1828-2.3057,0-5.2778,1.0322-8.9174,3.0939-3.6386,2.0643-7.3695,4.8224-11.1917,8.2799-3.8212,3.4575-7.2498,7.2509-10.2818,11.3738-3.033,4.1255-5.1572,8.2516-6.3693,12.3744-.3631.9723-.6077,1.9106-.7273,2.8205-.1228.9099-.1826,1.7915-.1826,2.6389,0,2.6699.8795,4.5805,2.6394,5.7323,1.7568,1.1544,3.9125,1.729,6.4596,1.729,2.7895,0,5.642-.424,8.5533-1.2741,8.2489-2.4254,14.9509-5.7606,20.1091-10.0089,5.1551-4.2452,10.3416-9.7046,15.5586-16.3782.4838-.6056.9099-.8469,1.2741-.7278.3642.1223.6654.1821.9099.1821.3642.1223.5457.4864.5457,1.092,0,.2445-.0619.5457-.1816.9099-.1228.3636-.2445.668-.3642.9099-5.218,7.0373-10.9807,13.1936-17.2881,18.4709-6.3095,5.2773-13.9529,8.7034-22.9291,10.2818Z" fill="#422549"/><path d="M452.0399,192.0269c-.9718,0-1.2143-.4261-.7273-1.2735.2414-.7278.8784-2.5476,1.9101-5.4594,1.0295-2.9118,2.2753-6.4291,3.7309-10.5546,1.4556-4.1229,2.9711-8.3397,4.5495-12.6478,1.5753-4.305,3.0309-8.1576,4.3669-11.5553-.8501,1.0915-2.1546,2.6699-3.9125,4.7311-1.76,2.0643-3.6113,4.2483-5.5497,6.5514-1.9426,2.3062-3.7624,4.3076-5.4594,6.0051-.3642.3642-.6087.5463-.7283.5463-.3642,0-.5457-.3642-.5457-1.092,0-1.4556.3642-2.7895,1.0915-4.0038,2.6678-3.3951,5.2464-6.5792,7.7347-9.5534,2.4852-2.9716,4.9029-5.6871,6.8237-8.4625.5524-.7981,2.2164-2.9596,3.0939-4.3674.6056-.8469,1.1198-1.6377,1.5469-2.3655.424-.7278.8186-1.5155,1.1828-2.3655.4838-1.092,1.484-3.1847,3.0026-6.2785,1.5155-3.0933,3.4266-6.7618,5.7323-11.0096,2.3036-4.2452,4.942-8.6441,7.9162-13.1936,2.9711-4.5495,6.1877-8.7947,9.6447-12.7386,3.458-3.9408,7.0347-7.1255,10.7373-9.554,3.6984-2.4254,7.4891-3.6396,11.3732-3.6396.4838,0,.9697.0315,1.4556.0913.4838.0624.9697.1532,1.4556.2729,3.032.6087,5.1551,1.6692,6.3693,3.1847,1.2122,1.5186,1.8198,3.3069,1.8198,5.3686,0,1.4556-.2729,3.0026-.8186,4.6403-.5457,1.6377-1.3056,3.2471-2.2742,4.8224-2.4285,4.2483-5.642,8.5244-9.6458,12.8294-4.0027,4.3081-8.462,8.5533-13.3746,12.7386-4.9137,4.1853-9.8273,8.2516-14.741,12.1924-4.9126,3.944-9.4936,7.6749-13.7388,11.1917-2.9123,6.1877-5.1582,11.6781-6.7335,16.4695-1.5784,4.794-2.7927,8.6435-3.6396,11.5553,1.3339-1.6975,3.3353-4.1229,6.0051-7.2792,2.6678-3.1532,5.7008-6.5509,9.099-10.1905,3.3951-3.6396,6.915-7.126,10.5546-10.4639,3.6396-3.3353,7.0976-6.065,10.3731-8.1891,3.2754-2.121,6.065-3.1847,8.3707-3.1847,2.9123,0,4.3679,1.5186,4.3679,4.5495,0,2.9118-1.0327,6.1274-3.0939,9.6447-2.0643,3.5205-3.7613,6.4916-5.0952,8.9169-1.7002,3.5205-3.0655,6.8867-4.0951,10.1002-1.0316,3.2156-1.6687,5.8545-1.9101,7.9157-.1228.4864-.1826.9414-.1826,1.3649v1.3649c0,4.8539,1.6981,7.2792,5.0963,7.2792,1.8198,0,4.2452-1.092,7.2782-3.2754,3.032-2.184,6.1248-4.7914,9.2816-7.8255,3.1526-3.0309,6.0335-5.9737,8.6435-8.8256,2.608-2.8493,4.3963-5.0045,5.3681-6.4606.3642-.3636.7882-.5457,1.2741-.5457.4838,0,.848.1821,1.0925.5457.2414.3642.2414.8506,0,1.4562-1.2143,2.0643-3.0939,4.6403-5.642,7.7342-2.5471,3.0933-5.3996,6.1872-8.5522,9.2806-3.1568,3.0939-6.2507,5.7323-9.2816,7.9162-1.5774,1.2143-3.6113,2.2748-6.0964,3.1847-2.4873.9099-4.9441,1.3649-7.3695,1.3649-1.9426,0-3.8222-.4864-5.642-1.4556-1.8198-.9697-3.1558-2.7895-4.0027-5.4594-.3642-1.092-.5468-2.6074-.5468-4.5495v-1.9111c0-.6654.0598-1.3649.1826-2.0927.4828-3.881,1.7883-7.9755,3.9125-12.2837,2.121-4.305,4.094-8.1576,5.9138-11.5553.4838-.9697.8795-1.8198,1.1828-2.5476.3023-.7283.4555-1.3339.4555-1.8198,0-.9697-.4261-1.4562-1.2741-1.4562-.8501,0-2.184.5463-4.0038,1.6377-1.8198,1.092-4.2473,2.9742-7.2792,5.6415-2.6699,2.3062-5.4898,5.3088-8.462,9.0082-2.9742,3.702-5.8855,7.4923-8.7348,11.3732-2.8514,3.8841-5.3398,7.2199-7.4608,10.0089-2.1242,2.7921-3.6113,4.4304-4.4582,4.9137-.6087.3636-2.0024.9697-4.1864,1.8198-2.1829.8475-3.7613,1.2735-4.7311,1.2735ZM479.5184,138.8895c4.8507-3.276,10.1286-7.3705,15.8325-12.2837,5.7008-4.9137,11.0699-10.191,16.1054-15.8325,5.0323-5.641,8.886-11.0096,11.5558-16.1048,1.4556-2.7895,2.1829-5.0952,2.1829-6.915,0-2.0617-.9099-3.0939-2.7297-3.0939-.8501,0-1.8198.213-2.9113.637-1.0915.4266-2.3655,1.1828-3.8212,2.2748-8.1293,6.3095-14.9856,13.8017-20.5636,22.4741-5.5822,8.6755-10.8002,18.2888-15.6509,28.844Z" fill="#422549"/><path d="M547.5763,191.6632c-3.3982,0-6.3693-.7908-8.9164-2.3661-4.2483-2.5476-6.3693-7.1564-6.3693-13.8301,0-2.7895.4828-6.0051,1.4556-9.6447.8469-3.0314,2.3655-6.3383,4.5495-9.9181,2.1829-3.5772,4.7594-7.0063,7.7336-10.2818,2.9711-3.2754,6.2161-5.9427,9.736-8.007,3.5168-2.0617,7.0347-3.0939,10.5546-3.0939,1.4556,0,2.7297.1821,3.8212.5463,1.4567.4859,2.6993,1.3649,3.7309,2.6384,1.0295,1.2741,1.5469,2.8835,1.5469,4.8229,0,2.0638-.5174,3.2156-1.5469,3.4575-1.0316.2445-1.5469,0-1.5469-.7283,0-.2414.0283-.4833.0913-.7278.0598-.2414.0913-.4235.0913-.5457,0-.9697-.2729-1.8481-.8196-2.6389-.5457-.7876-1.5469-1.1828-3.0026-1.1828-1.9415,0-4.3386,1.0322-7.1879,3.0939-2.8514,2.0643-5.7638,4.8224-8.7348,8.2799-2.9742,3.4575-5.5822,7.2509-7.8249,11.3738-2.2469,4.1255-3.7309,8.2516-4.4592,12.3744-.1217.6087-.213,1.1828-.2729,1.729-.0619.5457-.0903,1.1229-.0903,1.7285,0,2.7921.637,5.1267,1.9101,7.0063,1.2741,1.8822,3.3048,2.8205,6.0964,2.8205,3.3951,0,6.6705-1.3024,9.8273-3.9125,3.1526-2.6074,5.9737-5.7323,8.462-9.3719,2.4852-3.6396,4.3365-6.8526,5.5497-9.6447.9697-2.184,1.6382-4.0636,2.0024-5.6415.3642-1.5753.5457-2.9118.5457-4.0032,0-.9697-.0913-1.8198-.2729-2.5481-.1816-.7278-.3957-1.3334-.637-1.8198-.2445-.7278-.3642-1.2735-.3642-1.6377,0-.9697.3925-1.7574,1.1828-2.3655.7882-.6056,1.6068-.9099,2.4568-.9099.7283,0,1.5155.2445,2.3655.7278.9697.2445,2.3036.4266,4.0038.5457,1.6981.1223,3.5179.1821,5.4594.1821,2.0612,0,4.1538-.0598,6.278-.1821,2.1221-.1191,3.9723-.3636,5.5507-.7278.2414-.1191.6056-.1821,1.0915-.1821.848,0,1.2741.2445,1.2741.7283,0,.4859-.4261.9099-1.2741,1.2735-4.2473,1.9421-8.038,2.9742-11.3732,3.0939-3.3384.1223-6.2182.1821-8.6435.1821.2414,3.0335-.4271,6.278-2.0024,9.7355-1.5774,3.4575-3.2156,6.5231-4.9137,9.1898-2.0643,3.0341-4.4299,6.1279-7.0966,9.2811-2.6699,3.1563-5.641,5.7947-8.9174,7.9162-3.2754,2.121-6.977,3.1847-11.1004,3.1847Z" fill="#422549"/><path d="M613.2148,191.8453c-2.0643,0-3.8841-.455-5.4594-1.3649-1.5784-.9099-2.6699-2.6389-3.2765-5.1865-.3631-1.3339-.5457-2.6673-.5457-4.0038,0-3.6396.9382-7.1879,2.821-10.6454,1.8796-3.4575,4.094-6.671,6.6422-9.6453,2.5481-2.9711,4.7311-5.4877,6.5509-7.5521.9697-.9692,2.0927-2.2433,3.3667-3.8212,1.2741-1.5753,1.9111-3.1537,1.9111-4.7316,0-.9697-.4859-1.9106-1.4556-2.8205-.9729-.9099-2.7297-1.5469-5.2778-1.9111-1.4556-.2414-2.821-.455-4.094-.637-1.2741-.1816-2.5796-.2729-3.9125-.2729-3.3982,4.6119-6.7051,9.2528-9.9187,13.9214-3.2156,4.6718-6.6422,9.2528-10.2818,13.7393-.8501.8506-1.5774,1.2741-2.1829,1.2741-.7283,0-1.0925-.3642-1.0925-1.092s.3642-1.4556,1.0925-2.1834c6.5509-8.0075,12.1918-16.5603,16.9239-25.6593-.6087,0-1.5186-.0283-2.7297-.0908-1.2143-.0598-2.184-.1506-2.9123-.2729-.8501-.2419-1.5186-.6061-2.0014-1.092-.4859-.4833-.7283-.9697-.7283-1.4562,0-.7278.3012-1.1513.9099-1.2735,1.5753-.4833,3.2754-1.2116,5.0952-2.184,1.8198-.9697,3.5179-2.2433,5.0963-3.8212,1.697-1.6975,3.2754-3.4864,4.7311-5.3686,1.4556-1.8796,2.6069-3.3043,3.458-4.2766.8469-.6056,1.7568-.9099,2.7297-.9099.6056,0,1.1828.1821,1.7285.5463.5457.3636.8186.9099.8186,1.6377,0,.8501-.3642,1.9421-1.0915,3.2754-1.0925,1.7007-2.2753,3.5798-3.5493,5.6415-1.273,2.0643-2.4558,3.944-3.5483,5.6415,2.184.1223,4.3679.2445,6.5519.3636,2.1829.1223,4.4267.1821,6.7324.1821,1.2111,0,2.3949-.0283,3.5493-.0908,1.1513-.0598,2.334-.0913,3.5483-.0913,3.6396,0,5.4594.9099,5.4594,2.7297,0,1.2143-.637,2.7014-1.9111,4.4587-1.2741,1.76-2.821,3.6706-4.6408,5.7323-4.1255,4.7316-7.6423,9.7072-10.5546,14.9221-2.9113,5.218-4.8539,9.2213-5.8225,12.0108-.9729,2.9118-1.4567,5.0952-1.4567,6.5514,0,2.9113,1.1523,4.3674,3.458,4.3674,2.0612,0,4.5778-1.0295,7.5521-3.0939,2.9711-2.0612,6.0335-4.5778,9.1903-7.5521,3.1526-2.9716,6.0051-5.8829,8.5522-8.7348,2.5481-2.8493,4.3679-5.0045,5.4594-6.4606.2424-.3636.6056-.5457,1.0925-.5457.4828,0,.9099.213,1.273.637.3642.4266.3642.9409,0,1.5469-1.336,2.0643-3.2754,4.6403-5.8225,7.7336-2.5481,3.0939-5.3996,6.1589-8.5533,9.1903-3.1558,3.0341-6.2497,5.641-9.2806,7.8249-1.5784,1.2143-3.7309,2.3372-6.4606,3.3667-2.7297,1.029-5.3083,1.5469-7.7336,1.5469Z" fill="#422549"/><path d="M835.6249,257.2065c-4.3674,0-7.8564-1.2132-10.4639-3.6386-2.6101-2.4285-3.9125-5.7039-3.9125-9.8273,0-3.2754.9099-6.9465,2.7297-11.0101,1.8198-4.0657,4.7316-8.3423,8.7348-12.8289,8.2489-9.4632,17.4387-17.2283,27.5699-23.2933,10.128-6.0681,21.0185-10.9786,32.6651-14.741,1.6975-4.6083,3.2754-9.3089,4.7316-14.1029,1.4556-4.7909,2.9113-9.6138,4.3674-14.4671-5.9458,5.5817-12.4967,11.1319-19.6537,16.6511-7.1601,5.5213-14.7405,10.1307-22.7475,13.8301-8.007,3.7026-16.3184,5.5507-24.931,5.5507-6.3095,0-12.2837-1.1828-17.9252-3.5483-5.641-2.3666-10.222-5.9747-13.7393-10.8286-3.52-4.8507-5.2773-11.1004-5.2773-18.7432,0-18.8036,8.3712-35.728,25.1131-50.7724,9.7046-8.8545,20.2907-15.2547,31.7552-19.1987,11.4645-3.9408,23.5661-5.9144,36.3047-5.9144,1.4562,0,3.5488.1537,6.2785.455,2.7297.3043,5.5502.9099,8.462,1.8198,2.9113.9099,5.4594,2.184,7.6434,3.8217,2.1829,1.6377,3.457,3.7304,3.8212,6.278.1196.4864.1816.9099.1816,1.2741v1.092c0,1.4556-.2445,2.5476-.7273,3.2754-.4859.7278-1.0327,1.092-1.6382,1.092-1.2143,0-1.8198-.9697-1.8198-2.9118-.2445-3.2754-1.3045-5.7921-3.1841-7.5521-1.8828-1.7574-4.1853-2.9401-6.9156-3.5488-2.7297-.6056-5.4904-.9099-8.2799-.9099-4.4897,0-9.8583.9414-16.1054,2.821-6.2497,1.8822-12.8294,4.4897-19.7444,7.8249-6.915,3.3384-13.7393,7.2792-20.4728,11.8287-6.733,4.5495-12.8294,9.5256-18.2888,14.9221-5.4594,5.3996-9.8268,11.0726-13.1023,17.0153-3.276,5.9453-4.9137,11.951-4.9137,18.0159,0,8.3707,2.758,14.4073,8.2799,18.1067,5.5192,3.7026,12.5256,5.5507,21.0185,5.5507,8.2489,0,16.9838-1.4567,26.205-4.3679,6.9156-2.0612,12.8583-4.6408,17.8338-7.7336,4.9735-3.0939,9.7046-6.6705,14.1948-10.7373,4.4865-4.0631,9.2806-8.5218,14.3763-13.3751,2.1834-5.579,5.0328-9.1588,8.5528-10.7367,3.5179-1.5753,6.7933-2.3661,9.8273-2.3661,1.697,0,3.2125.1223,4.5495.3642,1.3328.2445,2.2427.3636,2.7297.3636.9687.1223,1.4556.4864,1.4556,1.092,0,1.092-.7283,1.5186-2.184,1.2741-3.7624-.2419-7.0378,1.4871-9.8273,5.1865-2.7916,3.702-5.0354,8.0978-6.7324,13.193-1.5784,4.2483-3.0939,8.6157-4.5495,13.1023-1.4567,4.4897-3.0341,8.9804-4.7316,13.467,6.1872-1.6981,10.7965-2.5481,13.8306-2.5481,1.4556,0,2.4254.1826,2.9113.5457.4838.3642.7283.8511.7283,1.4567,0,1.0915-.4271,1.4556-1.2741,1.0915-.7283-.2414-1.5186-.3642-2.3655-.3642-1.5784,0-3.5798.2729-6.0062.8196-2.4275.5457-4.6114,1.2447-6.5509,2.0927-1.9421.8501-3.1563,1.8817-3.6396,3.0928-5.2175,13.2224-10.7367,24.3858-16.5598,33.4848-5.8236,9.099-11.6781,16.4685-17.561,22.1105-5.886,5.641-11.496,9.736-16.8332,12.2831-5.3398,2.5481-10.0714,3.8212-14.1942,3.8212ZM840.7201,252.4754c4.4871,0,8.9169-1.7285,13.2843-5.1865,4.3674-3.457,8.5816-7.9162,12.6478-13.3756,4.0631-5.4584,7.7625-11.2819,11.1004-17.4697,3.3358-6.1867,6.2161-12.0732,8.6441-17.6512,2.4254-5.5822,4.2452-10.0687,5.4594-13.467-9.9491,3.2754-19.1704,7.6434-27.6607,13.1028-8.4935,5.4594-16.0765,12.3115-22.7475,20.5636-3.6396,4.4865-6.278,8.6719-7.9157,12.556-1.6382,3.882-2.4568,7.339-2.4568,10.3731,0,3.2754.8784,5.8519,2.6384,7.7336,1.7574,1.8796,4.0946,2.821,7.0063,2.821ZM939.2953,191.8762c-3.3982,0-6.3693-.7903-8.9164-2.3655-4.2483-2.5471-6.3693-7.1564-6.3693-13.8301,0-2.7895.4828-6.0051,1.4556-9.6447.8469-3.0309,2.3655-6.3378,4.5495-9.9181,2.1829-3.5772,4.7594-7.0063,7.7336-10.2818,2.9711-3.2754,6.2161-5.9427,9.736-8.007,3.5168-2.0617,7.0347-3.0939,10.5546-3.0939,1.4556,0,2.7297.1821,3.8212.5463,1.4567.4859,2.6993,1.3649,3.7309,2.6384,1.0295,1.2741,1.5469,2.8835,1.5469,4.8229,0,2.0638-.5174,3.2156-1.5469,3.4575-1.0316.2445-1.5469,0-1.5469-.7283,0-.2414.0283-.4833.0913-.7278.0598-.2414.0913-.4235.0913-.5457,0-.9697-.2729-1.8481-.8196-2.6389-.5457-.7876-1.5469-1.1828-3.0026-1.1828-1.9415,0-4.3386,1.0322-7.1879,3.0939-2.8514,2.0643-5.7638,4.8224-8.7348,8.2799-2.9742,3.4575-5.5822,7.2509-7.8249,11.3732-2.2469,4.1266-3.7309,8.2521-4.4592,12.3755-.1217.6077-.213,1.1828-.2729,1.7285-.0619.5457-.0903,1.1229-.0903,1.7285,0,2.7927.637,5.1267,1.9101,7.0063,1.2741,1.8828,3.3048,2.821,6.0964,2.821,3.3951,0,6.6705-1.3024,9.8273-3.9125,3.1526-2.608,5.9737-5.7333,8.462-9.3719,2.4852-3.6396,4.3365-6.8531,5.5497-9.6458.9697-2.1829,1.6382-4.0625,2.0024-5.641.3642-1.5753.5457-2.9118.5457-4.0032,0-.9697-.0913-1.8198-.2729-2.5481-.1816-.7278-.3957-1.3334-.637-1.8198-.2445-.7278-.3642-1.2735-.3642-1.6377,0-.9697.3925-1.7574,1.1828-2.3655.7882-.6056,1.6068-.9099,2.4568-.9099.7283,0,1.5155.2445,2.3655.7278.9697.2445,2.3036.4266,4.0038.5457,1.6981.1223,3.5179.1821,5.4594.1821,2.0612,0,4.1538-.0598,6.278-.1821,2.1221-.1191,3.9723-.3636,5.5507-.7278.2414-.1191.6056-.1821,1.0915-.1821.848,0,1.2741.2445,1.2741.7283,0,.4859-.4261.9099-1.2741,1.2735-4.2473,1.9421-8.038,2.9742-11.3732,3.0939-3.3384.1223-6.2182.1821-8.6435.1821.2414,3.0335-.4271,6.278-2.0024,9.7355-1.5774,3.458-3.2156,6.5225-4.9137,9.1903-2.0643,3.0341-4.4299,6.1269-7.0966,9.2806-2.6699,3.1558-5.641,5.7952-8.9174,7.9162-3.2754,2.121-6.977,3.1841-11.1004,3.1841ZM997.742,191.6947c-5.0952,0-8.6435-1.2741-10.6449-3.8212-2.0024-2.5481-3.0026-5.7018-3.0026-9.4632,0-3.5179.8186-7.9446,2.4558-13.2843,1.6382-5.3377,3.7907-11.1009,6.4606-17.2881,2.6667-6.1872,5.5507-12.3435,8.6446-18.4709,3.0928-6.1248,6.1867-11.7663,9.2806-16.9239,3.0939-5.1551,5.7921-9.3094,8.0978-12.4657,2.3036-3.0309,4.7909-6.065,7.4608-9.099,2.6678-3.0309,5.642-5.5785,8.9174-7.6429,3.2754-2.0617,6.9749-3.0939,11.1004-3.0939,2.7895,0,5.1865.7593,7.189,2.2748,2.0014,1.5186,3.0026,3.7934,3.0026,6.8243,0,1.2143-.2141,2.6106-.637,4.1853-.4271,1.5784-1.1229,3.2161-2.0927,4.9137-7.402,12.8609-16.2281,24.7489-26.4784,35.6677-10.2534,10.9188-21.0809,21.05-32.4836,30.3904-.4859,1.8198-.9403,3.458-1.3643,4.9137-.4261,1.4556-.7588,2.6101-1.0012,3.458-.1217.6077-.1816,1.2447-.1816,1.9101v1.9111c0,2.9113.4828,5.4594,1.4556,7.6434.9697,2.1829,2.608,3.2754,4.9137,3.2754,2.184,0,4.8822-1.061,8.0978-3.1852,3.2135-2.121,6.4606-4.7311,9.736-7.8249,3.2754-3.0939,6.2465-6.0964,8.9164-9.0077,2.6678-2.9113,4.5495-5.1551,5.642-6.7335.3642-.3642.7273-.5457,1.0915-.5457.4838,0,.8784.2445,1.1828.7283.3012.4859.2729,1.0915-.0903,1.8198-1.2143,2.0643-3.1568,4.6114-5.8236,7.6423-2.6699,3.0341-5.642,6.0964-8.9174,9.1903-3.2754,3.0939-6.4312,5.7952-9.4621,8.0978-3.7624,2.6678-7.5836,4.0038-11.4656,4.0038ZM997.5604,157.1184c4.6093-3.1532,9.4002-7.2477,14.3769-12.2831,4.9724-5.0328,9.8546-10.5237,14.6487-16.469,4.7909-5.9432,9.1588-11.8287,13.1028-17.6523,3.9408-5.8231,7.1249-11.1004,9.5534-15.832.7283-1.3339,1.2426-2.5167,1.5469-3.5488.3012-1.029.4555-1.9704.4555-2.8205,0-2.3031-.9729-3.4575-2.9123-3.4575-1.7002,0-3.8212.9099-6.3693,2.7297-6.5509,5.0952-12.619,11.6183-18.198,19.5623-5.5811,7.9477-10.5546,16.2874-14.9215,25.0223-4.3679,8.7348-8.1293,16.9864-11.283,24.7489ZM1077.448,209.7101c-3.1568-.4859-5.3996-2.0014-6.7335-4.5495-1.336-2.5471-2.0014-5.7029-2.0014-9.4621,0-4.4897.637-9.3404,1.9101-14.5584,1.2741-5.2149,2.758-10.1286,4.4592-14.74,1.697-4.6093,3.0309-8.1272,4.0027-10.5552-2.7916,3.276-5.9768,6.8557-9.5534,10.7367-3.5798,3.8841-7.3107,7.5836-11.1917,11.1004-3.8841,3.52-7.615,6.4008-11.1917,8.6446-3.5798,2.2459-6.7051,3.3667-9.3719,3.3667-1.9426,0-4.0038-.5751-6.1877-1.7295-2.1829-1.1513-3.944-2.6384-5.2768-4.4582-1.8198-2.4254-2.7297-4.9137-2.7297-7.4608,0-3.2754,1.1198-6.6705,3.3667-10.1915,2.2427-3.5168,5.1551-6.9434,8.7348-10.2813,3.5766-3.3353,7.3988-6.3693,11.4645-9.099,4.0636-2.7297,7.9446-5.0328,11.6461-6.915,3.6994-1.8796,6.702-3.1222,9.0088-3.7309,1.2111-.2414,2.4852-.4833,3.8212-.7278,1.3339-.2419,2.7297-.3642,4.1853-.3642,1.8198,0,3.6396.2136,5.4594.637,1.8198.4266,3.3353,1.1235,4.5495,2.0927l.7283.5463c2.9113-6.671,6.1248-13.4355,9.6447-20.2907,3.5168-6.8526,7.2792-13.1311,11.283-18.8351,4.0027-5.7008,8.2479-10.2818,12.7376-13.7393,4.4876-3.4575,9.1588-5.1865,14.0127-5.1865.6056,0,1.2111.0315,1.8198.0913.6056.0624,1.1513.1532,1.6382.2729,3.0309.6087,5.1865,1.6692,6.4596,3.1847,1.2741,1.5186,1.9111,3.3069,1.9111,5.3686,0,1.4556-.2729,3.0026-.8186,4.6403-.5457,1.6377-1.3056,3.2471-2.2753,4.8224-2.6699,4.7316-6.1584,9.4034-10.4633,14.0122-4.3081,4.6125-9.0077,9.0707-14.104,13.3756-5.0952,4.3076-10.1621,8.462-15.1944,12.4657-5.0365,4.0032-9.6164,7.7651-13.7398,11.2825-1.8198,4.2483-3.6396,9.2213-5.4594,14.9221-1.8198,5.7039-3.3384,10.5546-4.5495,14.5584-.7273,2.9113-1.3045,5.641-1.7285,8.1891-.4271,2.5481-.637,4.9137-.637,7.0976,0,4.0027.7283,7.2792,2.184,9.8263,1.2111,1.9394,2.7297,2.9113,4.5495,2.9113,1.3328,0,2.5471-.4859,3.6396-1.4556.4828-.2445.9382-.5457,1.3643-.9099.424-.3642.9382-.7273,1.5469-1.0915.7283-.3642,1.3339-.5457,1.8198-.5457.8469,0,.9099.6654.1816,2.0014-.3631.3642-.7903.8186-1.273,1.3654-.487.5457-1.0327,1.1198-1.6382,1.7285-.8501.6056-2.1242,1.0915-3.8212,1.4556-1.7002.3642-3.3982.5457-5.0952.5457-.487,0-1.0012-.0315-1.5469-.0903-.5468-.063-1.0642-.1543-1.5469-.2739ZM1032.6813,185.3253c.6056.7283,1.3927,1.0915,2.3655,1.0915,1.8198,0,3.9723-.7871,6.4606-2.3655,2.4852-1.5753,4.1538-2.7895,5.0039-3.6396,6.1877-4.9724,12.4028-10.3416,18.6524-16.1054,6.2476-5.7601,12.1016-11.5553,17.561-17.3784.4838-1.092.9099-2.1525,1.2741-3.1847.3642-1.0295.7882-2.0302,1.2741-3.0026-1.8198-.7278-3.944-1.092-6.3693-1.092-4.8539,0-10.1905,1.5779-16.014,4.7316-5.8236,3.1558-11.0416,6.8552-15.6499,11.1004-1.4567,1.2143-3.4297,3.3069-5.9149,6.2785-2.4883,2.9742-4.7625,6.2182-6.8237,9.736-2.0643,3.52-3.0939,6.7324-3.0939,9.6447,0,1.5784.424,2.9742,1.2741,4.1853ZM1094.9177,139.103c4.8507-3.276,10.1286-7.3705,15.8325-12.2837,5.7008-4.9137,11.0374-10.191,16.014-15.8325,4.9724-5.641,8.7947-11.0096,11.4645-16.1048,1.5753-2.9118,2.3655-5.2149,2.3655-6.915,0-2.0617-.9099-3.0939-2.7297-3.0939-1.7002,0-3.944.9723-6.7335,2.9118-8.1293,6.3095-14.9845,13.8017-20.5636,22.4741-5.5811,8.6755-10.7992,18.2888-15.6499,28.844Z" fill="url(#b)"/><path d="M898.5626,228.3978c.3818,0,.708-.1357.9795-.4072s.4141-.5977.4287-.9795v-12.2539c-.0439-.5127-.2861-.8945-.7256-1.1436-.2207-.1172-.4482-.1758-.6826-.1758h-.2861v-.2207h8.4258c.4551,0,.9531-.0439,1.4961-.1318s.9238-.1758,1.1445-.2637v3.8496h-.2207v-.2637c0-.6602-.1943-1.1914-.582-1.5947-.3887-.4033-.9141-.6201-1.5742-.6494h-3.6953v6.4023h2.9043c.542-.0146.9902-.2021,1.3418-.5615s.5273-.8027.5273-1.3311v-.1973h.2207v5.082h-.2207v-.1768c0-.7324-.293-1.2754-.8789-1.6279-.2939-.1611-.6172-.249-.9688-.2637h-2.9258v6.1816h2.8818c1.0713,0,1.9697-.3076,2.6953-.9238s1.2646-1.4883,1.6162-2.6182h.2207l-1.0117,4.4883h-11.3965v-.2197h.2861Z" fill="#422549"/><path d="M932.3682,213.4379h-.1982c-.3369,0-.6748.1025-1.0127.3076-.3369.2061-.6152.5137-.8359.9238l-5.2129,11.5059c-.6758,1.4521-1.0352,2.4131-1.0781,2.8828h-.1982l-6.666-14.3662c-.2197-.4111-.499-.7227-.8359-.9355-.3379-.2119-.6826-.3184-1.0342-.3184h-.1758v-.2207h6.9961v.2207h-.1758c-.3232,0-.5615.0986-.7148.2969-.1543.1982-.2324.3848-.2324.5605s.0293.3525.0889.5283l3.7393,9.0859,3.873-9.0859c.0723-.1904.1094-.3701.1094-.5391,0-.168-.0762-.3516-.2305-.5498s-.3926-.2969-.7148-.2969h-.1992v-.2207h4.709v.2207Z" fill="#422549"/><path d="M937.9229,228.3978c.3809,0,.707-.1357.9785-.4072s.4141-.5977.4297-.9795v-12.2539c-.0449-.5127-.2871-.8945-.7266-1.1436-.2207-.1172-.4473-.1758-.6816-.1758h-.2871v-.2207h8.4268c.4541,0,.9531-.0439,1.4961-.1318.542-.0879.9238-.1758,1.1436-.2637v3.8496h-.2197v-.2637c0-.6602-.1943-1.1914-.583-1.5947s-.9131-.6201-1.5732-.6494h-3.6963v6.4023h2.9043c.543-.0146.9902-.2021,1.3418-.5615.3525-.3594.5283-.8027.5283-1.3311v-.1973h.2197v5.082h-.2197v-.1768c0-.7324-.2939-1.2754-.8799-1.6279-.293-.1611-.6162-.249-.9678-.2637h-2.9268v6.1816h2.8828c1.0703,0,1.9688-.3076,2.6953-.9238.7256-.6162,1.2637-1.4883,1.6162-2.6182h.2197l-1.0117,4.4883h-11.3965v-.2197h.2871Z" fill="#422549"/><path d="M972.6563,213.4379c-.3662,0-.6826.1279-.9463.3848s-.4033.5684-.418.9346v11.3525c0,.9824.0664,1.8115.1982,2.4854l.0654.3301h-.1973l-11.1104-10.582v8.7344c0,.3672.1318.6787.3955.9346.2646.2568.5801.3857.9473.3857h.418v.2197h-6.666v-.2197h.3955c.3809,0,.7041-.1289.9678-.3857.2637-.2559.3965-.5752.3965-.9561v-11.4189c0-.9678-.0664-1.7744-.1982-2.4199l-.0439-.3301h.1973l11.1104,10.582v-8.6895c-.0146-.3809-.1533-.7002-.418-.957-.2637-.2568-.5791-.3848-.9463-.3848h-.3955v-.2207h6.666v.2207h-.418Z" fill="#422549"/><path d="M987.3672,214.1195v12.9141c.0146.3818.1572.7041.4287.9678.2715.2646.5977.3965.9785.3965h.2646l.0225.2197h-6.6885v-.2197h.2861c.3662,0,.6855-.1318.957-.3965.2715-.2637.4219-.5791.4512-.9453v-12.9365h-2.9707c-.6738.0146-1.209.2275-1.6055.6377-.3965.4111-.5938.9463-.5938,1.6064v.2637h-.2207v-3.8281c.2051.0879.5762.1768,1.1113.2646s1.0303.1318,1.4844.1318h8.8672c.7178-.0146,1.3047-.0732,1.7598-.1758.4541-.1025.7324-.1768.8359-.2207v3.8281h-.2207v-.2637c0-.6602-.1973-1.1953-.5938-1.6064-.3965-.4102-.9316-.623-1.6055-.6377h-2.9482Z" fill="#422549"/><path d="M998.3975,226.5716c0-1.0557.2275-1.958.6826-2.7061h.1982c-.0156.1172-.0225.2344-.0225.3516,0,1.0127.3623,1.8965,1.0889,2.6514.7266.7559,1.7197,1.1328,2.9805,1.1328.9824,0,1.75-.2344,2.2998-.7041.5498-.4688.8252-1.0625.8252-1.7812,0-.8652-.5869-1.6211-1.7598-2.2666l-3.8281-2.5303c-.7637-.4395-1.3096-.9707-1.6396-1.5947-.3291-.623-.4951-1.2568-.4951-1.9033,0-1.3779.4365-2.4414,1.3086-3.1895.873-.748,1.9922-1.1221,3.3555-1.1221.8066,0,1.8047.0732,2.9922.2197h1.3867l-.2871,3.2344h-.2197c0-.7627-.2822-1.375-.8467-1.8369s-1.3164-.6934-2.2559-.6934c-1.1426,0-1.9727.3525-2.4854,1.0566-.2646.3369-.3955.7188-.3955,1.1436,0,.7041.5127,1.3564,1.5391,1.958l4.2031,2.7275c1.3193.7637,1.9795,1.8848,1.9795,3.3662,0,1.5693-.5322,2.7686-1.5947,3.5977-1.0645.8281-2.4756,1.2422-4.2354,1.2422-.9971,0-1.918-.1211-2.7607-.3623-.8438-.2422-1.4629-.5684-1.8594-.9795-.1025-.2783-.1543-.6162-.1543-1.0117Z" fill="#422549"/><path d="M1034.3897,228.9144c-2.8311-.0078-5.0527-.7217-6.666-2.1445s-2.4199-3.374-2.4199-5.8525.7988-4.4326,2.3984-5.8633c1.5977-1.4297,3.791-2.1445,6.5771-2.1445,2.126,0,3.9521.3965,5.4775,1.1885l.0449,3.7832h-.1758c-.748-2.6982-2.457-4.0479-5.127-4.0479-1.7305,0-3.0977.627-4.1025,1.8809s-1.5068,2.9668-1.5068,5.1377.4805,3.8936,1.4414,5.1699c.96,1.2754,2.2617,1.9355,3.9043,1.9795,1.7012,0,3-.4248,3.8945-1.2754.9082-.8809,1.5391-2.3906,1.8916-4.5322h.1758l.2197,3.7842c-1.1875,1.9648-3.1973,2.9443-6.0273,2.9365Z" fill="#422549"/><path d="M1055.3536,212.9095c2.7129,0,4.8691.7188,6.4678,2.1562s2.3984,3.3877,2.3984,5.8516-.7998,4.415-2.3984,5.8525-3.7549,2.1553-6.4678,2.1553-4.8701-.7178-6.4678-2.1553c-1.5996-1.4375-2.3984-3.3887-2.3984-5.8525,0-1.6279.3633-3.0469,1.0889-4.2568s1.7568-2.1377,3.0908-2.7832c1.335-.6445,2.8965-.9678,4.6865-.9678ZM1051.5147,226.099c.9453,1.2686,2.2246,1.9023,3.8389,1.9023,1.6133,0,2.8936-.6338,3.8389-1.9023s1.4189-2.9961,1.4189-5.1816c0-1.4375-.2129-2.6914-.6377-3.7617-.4258-1.0703-1.0342-1.8916-1.8262-2.4639s-1.7236-.8584-2.7939-.8584c-1.6143,0-2.8936.6348-3.8389,1.9033-.9463,1.2686-1.4199,2.9961-1.4199,5.1807s.4736,3.9131,1.4199,5.1816Z" fill="#422549"/><path d="M1070.7862,228.3754c-.3164.3086-.6934.4619-1.1328.4619-.4404,0-.8145-.1533-1.123-.4619-.3066-.3076-.4609-.6816-.4609-1.1221,0-.4395.1543-.8174.4609-1.1328.3086-.3154.6826-.4727,1.123-.4727.4395,0,.8164.1572,1.1328.4727.3145.3154.4727.6934.4727,1.1328,0,.4404-.1582.8145-.4727,1.1221Z" fill="#422549"/></svg>