<?xml version="1.0" encoding="UTF-8"?><svg xmlns="http://www.w3.org/2000/svg" width="300" height="300" viewBox="0 0 300 300"><rect width="300" height="300" fill="none"/><g id="a"><path d="M182.2739,85.0192c1.9194-4.7483,2.2139-12.6953-4.1733-13.9304-11.3027-.6492-18.564,14.6052-21.5879,23.6331-2.4326,6.6729-2.4688,13.2715-1.3955,19.8271,11.1455-6.2437,20.9111-14.2319,27.1567-29.5298Z" fill="#fff"/><path d="M159.1353,178.3868c1.8916-8.2253,1.5938-16.8623.4678-25.4001-9.5703,1.4729-18.9966,3.3328-26.8345,6.6777-1.5522.7139-3.0205,1.5186-4.2744,2.4771-3.2339,2.3716-5.4634,7.3264-3.8711,11.3103.9824,2.2976,3.8457,4.0312,3.9858,4.6465.0571.1899-.1113.2227-.2998.2151-.813.0396-3.3906-1.1462-4.4893-2.5354-2.6577-2.8872-2.5728-8.1968-.9502-11.3684,2.0088-3.8979,6.4492-6.1543,10.3555-7.8228,7.5117-2.9861,16.5996-5.345,25.8154-7.4858-.3628-2.2856-.7695-4.5586-1.1963-6.8086-1.0869-7.1606-3.4692-14.1536-5.3506-21.1892-18.4497,12.0815-42.6411,24.7886-50.4766,44.3428-3.021,8.3953-2.4717,18.9668,4.6748,25.1675,11.4224,8.8962,36.0781,4.4761,49.3799-2.2163,1.2261-3.3481,2.3052-6.7148,3.0635-10.0103Z" fill="#fff"/><path d="M164.8716,183.1115c13.3657-9.1057,24.3696-21.9304,30.7153-36.6714-8.5698,2.8367-19.6006,4.1797-30.79,5.7793,1.812,11.0703,1.9067,20.7991.0747,30.8921Z" fill="#fff"/><path d="M150,23.7235c-69.7407,0-126.2764,56.5359-126.2764,126.2766s56.5356,126.2764,126.2764,126.2764,126.2764-56.5359,126.2764-126.2764S219.7407,23.7235,150,23.7235ZM161.7539,217.0604c-2.3652.7244-5.3311,1.9807-6.8965,3.208-1.8159,1.3403-2.8374,2.8982-3.2671,4.7078.0151.1675.0244.3386.0449.5034.8862,6.9927,9.0806,7.2112,5.5371,8.0854-4.521,1.115-8.2236-2.9561-8.8594-4.8076-1.0552-2.1597-1.5894-4.6343-1.7588-7.2373-.4048-.4368-.873-.854-1.4121-1.2517-1.5649-1.2273-4.5308-2.4836-6.896-3.208-32.2974-9.8074-66.6567-6.2312-81.0791-20.4265-6.6582-7.0513-5.6777-15.2798-4.3848-19.0354,1.4062-4.0864,4.4053-5.9426,5.3691-6.2786,1.5659-.573,3.1011-.1108,3.1279.7388.0342.5166-.498,1.1487-1.144,2.0342-.5474.7529-1.1245,1.689-1.4883,2.5781-1.7642,4.6777,1.6509,11.1067,5.8926,14.6514,7.1899,5.3347,16.4189,6.7664,25.1523,8.8223,17.6382,4.0803,39.2686,7.812,53.7905,13.9329,1.0132.395,2.1401.9568,3.2466,1.6294.5732-4.9536,2.0972-9.9241,3.7988-13.8274.3125-.7141.6289-1.4424.9458-2.1711-12.3633,3.8103-26.3599,4.3237-39.1177-.5825-13.7573-5.4282-18.335-20.0674-15.9902-33.4988,2.2568-13.7112,12.7632-24.9221,24.1982-32.6501,10.2095-7.0168,20.9404-11.2913,30.8149-16.4126-2.6323-12.8684.9692-26.6763,8.8574-37.2498,3.0386-4.3496,6.356-8.4314,11.1621-10.8672,4.0625-2.1118,9.6709-3.1431,13.5654-1.083,6.4707,3.3489,6.3379,11.9358,3.2622,17.7246-3.6758,7.6616-9.4731,13.9304-15.5356,19.8584-3.9233,3.8142-7.9897,7.4639-12.3672,10.75-1.3931,1.0322-2.8589,2.0627-4.3711,3.0947,2.0732,9.0645,5.7583,18.0591,7.6553,27.0659.1489.7078.2876,1.4053.4238,2.1011,6.3735-1.4351,12.6841-2.8003,18.4521-4.229,6.7139-1.5312,13.5039-3.5881,18.7402-8.2844,4.521-4.2764,7.3125-10.0579,5.064-15.5459-.4634-1.3535-.2017-3.2625,1.1138-2.5376,1.3159.7251,2.0688,2.0098,3.0391,4.0315,1.6919,3.9058,2.2378,8.9902.2368,13.542-1.7109,4.1338-5.1382,7.1089-9.7222,9.3506-2.2334,9.7144-5.8115,19.0264-11.2734,27.4329-5.5601,8.4807-15.3535,16.739-24.1226,21.845-1.2495.7275-2.5415,1.4175-3.8647,2.0732-.0806.2505-6.502,10.5916-9.1045,20.4893,1.3149-.8733,2.7056-1.5725,3.9277-2.0491,14.522-6.1208,36.1528-9.8525,53.79-13.9329,8.7339-2.0559,17.9629-3.4875,25.1528-8.8223,4.2417-3.5447,7.6567-9.9736,5.8931-14.6514-.3643-.8892-.9414-1.8252-1.4883-2.5781-.6465-.8855-1.1787-1.5176-1.1445-2.0342.0264-.8496,1.5615-1.3118,3.1279-.7388.9644.3359,3.9629,2.1921,5.3696,6.2786,1.2925,3.7556,2.2729,11.9841-4.3853,19.0354-14.4224,14.1953-48.7812,10.6191-81.0791,20.4265Z" fill="#fff"/></g></svg>