<?xml version="1.0" encoding="UTF-8"?><svg id="a" xmlns="http://www.w3.org/2000/svg" width="300" height="300" viewBox="0 0 300 300"><circle cx="150" cy="150" r="126.2764" fill="#b76e79"/><path d="M247.2182,177.5985c-1.4069-4.0864-4.4052-5.9426-5.3695-6.2784-1.5663-.5731-3.1014-.111-3.1281.7387-.0341.5166.4982,1.1487,1.1444,2.0341.5472.7529,1.124,1.689,1.4884,2.5781,1.7639,4.6779-1.6512,11.1068-5.8929,14.6514-7.19,5.3348-16.419,6.7663-25.1527,8.8221-17.6376,4.0805-39.2685,7.8121-53.7902,13.933-1.2223.4766-2.6128,1.1757-3.9277,2.0489,2.6024-9.8976,9.024-20.2387,9.1044-20.4891,1.3235-.6558,2.615-1.3457,3.8647-2.0732,8.7689-5.1059,18.5625-13.3643,24.1225-21.845,5.4618-8.4064,9.0403-17.7184,11.2735-27.433,4.5839-2.2417,8.0112-5.2167,9.7224-9.3506,2.0008-4.5517,1.4547-9.636-.2373-13.5419-.9702-2.0217-1.7231-3.3064-3.0388-4.0315-1.3153-.7249-1.5774,1.1841-1.114,2.5376,2.2488,5.4881-.5427,11.2696-5.064,15.546-5.236,4.6962-12.026,6.7531-18.7401,8.2846-5.768,1.4286-12.0787,2.7939-18.452,4.2289-.1364-.6958-.2751-1.3933-.4241-2.101-1.897-9.0071-5.5819-18.0016-7.6549-27.0662,1.5122-1.0319,2.978-2.0623,4.3707-3.0947,4.3774-3.286,8.4438-6.9357,12.3671-10.7498,6.0627-5.9279,11.8603-12.1967,15.536-19.8583,3.0755-5.7889,3.2082-14.3758-3.2623-17.7247-3.8944-2.0601-9.5029-1.0289-13.5656,1.083-4.806,2.4358-8.1231,6.5176-11.1619,10.867-7.8881,10.5736-11.4896,24.3816-8.8575,37.2499-9.8744,5.1213-20.6051,9.3958-30.8147,16.4125-11.4355,7.7281-21.9416,18.939-24.1985,32.6503-2.3448,13.4314,2.2332,28.0704,15.9901,33.4986,12.7578,4.9062,26.7546,4.393,39.1176.5826-.3166.7288-.6332,1.4571-.9453,2.1713-1.702,3.9031-3.226,8.8736-3.7991,13.8273-1.1062-.6727-2.2332-1.2345-3.2467-1.6295-14.5217-6.1209-36.1522-9.8525-53.7902-13.933-8.7337-2.0558-17.9627-3.4873-25.1523-8.8221-4.2417-3.5446-7.6571-9.9736-5.8929-14.6514.364-.8892.9409-1.8252,1.4884-2.5781.6458-.8855,1.1785-1.5175,1.144-2.0341-.0267-.8497-1.5618-1.3118-3.1281-.7387-.9639.3359-3.9626,2.192-5.3691,6.2784-1.2931,3.7555-2.2732,11.9841,4.3848,19.0353,14.4223,14.1953,48.7818,10.6193,81.0793,20.4266,2.3652.7244,5.3309,1.9806,6.8961,3.208.539.3978,1.0072.8148,1.4121,1.2517.1694,2.603.7036,5.0775,1.7587,7.2373.6358,1.8515,4.3381,5.9226,8.8594,4.8074,3.5437-.8741-4.651-1.0927-5.537-8.0853-.0208-.1648-.03-.3359-.0452-.5034.43-1.8095,1.4514-3.3674,3.2675-4.7077,1.5652-1.2274,4.5313-2.4836,6.8961-3.208,32.2979-9.8073,66.657-6.2314,81.0793-20.4266,6.6581-7.0512,5.6779-15.2798,4.3852-19.0353ZM195.5871,146.44c-6.3459,14.741-17.3499,27.5657-30.7153,36.6716,1.8317-10.0931,1.7372-19.8218-.0749-30.8921,11.1893-1.5998,22.22-2.9427,30.7902-5.7795ZM156.5129,94.7218c3.0239-9.0277,10.2848-24.2823,21.5879-23.633,6.3871,1.235,6.0923,9.1821,4.1732,13.9302-6.2455,15.298-16.0112,23.2862-27.1568,29.5299-1.0732-6.5557-1.0369-13.1543,1.3957-19.8272ZM106.692,190.6134c-7.1467-6.2008-7.6961-16.7723-4.6747-25.1675,7.8355-19.5542,32.0265-32.2612,50.4763-44.3426,1.8814,7.0354,4.2636,14.0285,5.3505,21.1892.4267,2.2499.8337,4.5229,1.1963,6.8086-9.2156,2.1409-18.3037,4.4998-25.8152,7.4859-3.9062,1.6684-8.3467,3.9248-10.3556,7.8227-1.6226,3.1717-1.7075,8.4812.9501,11.3684,1.0988,1.3891,3.6764,2.575,4.4894,2.5355.1883.0076.357-.0252.2995-.215-.1401-.6154-3.0032-2.349-3.9859-4.6467-1.5919-3.9839.6376-8.9385,3.8714-11.3102,1.2541-.9585,2.7222-1.7631,4.2744-2.4771,7.838-3.345,17.2642-5.2047,26.8347-6.6777,1.1259,8.5378,1.4235,17.1749-.4678,25.4002-.7581,3.2953-1.8373,6.6621-3.0636,10.0103-13.3017,6.6925-37.9576,11.1126-49.3797,2.2163Z" fill="#fff"/></svg>