<svg xmlns="http://www.w3.org/2000/svg" xmlns:xlink="http://www.w3.org/1999/xlink" width="2000" zoomAndPan="magnify" viewBox="0 0 1500 1499.999933" height="2000" preserveAspectRatio="xMidYMid meet" version="1.0"><defs><clipPath id="293d9913f5"><path d="M 90.804688 90.804688 L 1409 90.804688 L 1409 1409 L 90.804688 1409 Z M 90.804688 90.804688 " clip-rule="nonzero"/></clipPath></defs><g clip-path="url(#293d9913f5)"><path fill="#b79ab3" d="M 749.460938 1408.496094 C 386.082031 1408.496094 90.449219 1112.851562 90.449219 749.472656 C 90.449219 386.09375 386.082031 90.449219 749.460938 90.449219 C 1112.851562 90.449219 1408.496094 386.082031 1408.496094 749.472656 C 1408.496094 1112.863281 1112.851562 1408.496094 749.460938 1408.496094 Z M 749.460938 195.332031 C 443.917969 195.332031 195.332031 443.917969 195.332031 749.472656 C 195.332031 1055.027344 443.917969 1303.613281 749.460938 1303.613281 C 1055.019531 1303.613281 1303.613281 1055.027344 1303.613281 749.472656 C 1303.613281 443.917969 1055.019531 195.332031 749.460938 195.332031 Z M 749.460938 195.332031 " fill-opacity="1" fill-rule="nonzero"/></g><path fill="#b79ab3" d="M 736.71875 822.179688 C 682.515625 777.601562 646.320312 722.601562 627.292969 691.304688 L 613.105469 664.546875 C 618.066406 659.21875 655.90625 618.695312 672.308594 596.710938 C 692.917969 569.105469 663.039062 544.164062 663.039062 544.164062 C 663.039062 544.164062 578.953125 460.070312 559.792969 443.390625 C 540.628906 426.683594 518.574219 435.964844 518.574219 435.964844 C 478.296875 461.988281 436.542969 484.609375 434.046875 593.417969 C 433.953125 695.289062 511.28125 800.363281 594.90625 881.710938 C 678.667969 973.566406 793.671875 1065.644531 904.847656 1065.539062 C 1013.652344 1063.0625 1036.265625 1021.308594 1062.289062 981.035156 C 1062.289062 981.035156 1071.570312 958.988281 1054.882812 939.816406 C 1038.195312 920.640625 954.089844 836.546875 954.089844 836.546875 C 954.089844 836.546875 929.167969 806.65625 901.554688 827.285156 C 880.964844 842.671875 844.003906 876.894531 835.109375 885.191406 C 835.121094 885.203125 773.292969 852.246094 736.71875 822.179688 Z M 736.71875 822.179688 " fill-opacity="1" fill-rule="nonzero"/></svg>