<svg xmlns="http://www.w3.org/2000/svg" xmlns:xlink="http://www.w3.org/1999/xlink" width="2000" zoomAndPan="magnify" viewBox="0 0 1500 1499.999933" height="2000" preserveAspectRatio="xMidYMid meet" version="1.0"><defs><clipPath id="70531be74a"><path d="M 95.625 96 L 1370.625 96 L 1370.625 1370.625 L 95.625 1370.625 Z M 95.625 96 " clip-rule="nonzero"/></clipPath><clipPath id="ef05149617"><path d="M 95.625 95.625 L 1370.625 95.625 L 1370.625 1370.625 L 95.625 1370.625 Z M 95.625 95.625 " clip-rule="nonzero"/></clipPath></defs><g clip-path="url(#70531be74a)"><path fill="#b79ab3" d="M 1370.445312 733.183594 C 1370.445312 766.171875 1367.921875 798.617188 1363.113281 830.28125 C 1361.730469 839.59375 1360.109375 848.847656 1358.1875 858.042969 C 1357.828125 859.964844 1357.464844 861.828125 1357.046875 863.6875 C 1354.042969 878.589844 1350.4375 893.25 1346.289062 907.730469 C 1346.230469 907.792969 1346.230469 907.851562 1346.230469 907.972656 C 1343.40625 917.945312 1340.34375 927.859375 1336.976562 937.652344 C 1335.296875 942.699219 1333.492188 947.6875 1331.75 952.613281 C 1328.207031 962.289062 1324.417969 971.84375 1320.394531 981.335938 C 1223.65625 1210.136719 997.199219 1370.566406 733.066406 1370.566406 C 662.105469 1370.566406 603.160156 1360.171875 543.4375 1341.84375 C 585.675781 1279.714844 611.933594 1215.183594 629.480469 1146.6875 L 662.105469 1014.382812 C 702 1064.613281 759.320312 1092.492188 824.695312 1092.492188 C 989.566406 1092.492188 1142.542969 929.960938 1142.542969 713.238281 C 1142.542969 496.511719 985.601562 323.648438 735.410156 323.648438 C 485.214844 323.648438 327.492188 492.546875 327.492188 704.464844 C 327.492188 827.15625 388.058594 917.226562 451.808594 917.226562 C 472.539062 917.226562 486.054688 913.199219 498.792969 891.6875 C 459.738281 850.289062 439.851562 789.726562 439.851562 724.414062 C 439.851562 562.664062 552.992188 446.339844 731.441406 446.339844 C 891.570312 446.339844 999.960938 552.269531 999.960938 718.042969 C 999.960938 866.992188 921.070312 981.757812 810.335938 981.757812 C 748.207031 981.757812 699.597656 945.886719 699.597656 882.136719 C 699.597656 867.773438 702 851.070312 707.527344 833.527344 L 735.410156 741.898438 C 743.398438 716.421875 747.367188 694.128906 747.367188 674.183594 C 747.367188 611.273438 713.117188 578.585938 666.128906 578.585938 C 598.414062 578.585938 555.394531 642.335938 555.394531 731.5625 C 555.394531 769.777344 563.324219 808.050781 573.71875 841.519531 L 509.96875 1116.40625 C 494.046875 1183.339844 488.460938 1252.617188 496.390625 1325.140625 C 330.015625 1258.507812 199.511719 1124.878906 136.664062 958.683594 C 136.664062 958.625 136.601562 958.625 136.601562 958.5625 C 135.222656 954.898438 133.839844 951.171875 132.515625 947.507812 C 129.8125 940.058594 127.289062 932.546875 124.945312 924.976562 C 122.484375 917.40625 120.261719 909.714844 118.21875 902.023438 C 117.195312 898.179688 116.175781 894.332031 115.152344 890.488281 C 113.230469 882.734375 111.367188 874.925781 109.683594 867.054688 C 108.902344 863.269531 108.121094 859.421875 107.339844 855.578125 L 107.160156 854.496094 C 106.441406 850.832031 105.78125 847.105469 105.117188 843.320312 C 103.675781 835.507812 102.476562 827.636719 101.453125 819.707031 C 101.453125 819.527344 101.394531 819.347656 101.394531 819.226562 C 100.851562 815.441406 100.371094 811.714844 99.953125 807.929688 C 99.53125 804.324219 99.171875 800.71875 98.808594 797.054688 C 98.449219 794.171875 98.207031 791.289062 98.027344 788.402344 C 97.609375 783.957031 97.246094 779.511719 97.007812 775.003906 C 96.828125 772.902344 96.707031 770.796875 96.648438 768.695312 C 96.464844 766.472656 96.347656 764.25 96.285156 762.027344 C 96.164062 759.800781 96.046875 757.519531 96.046875 755.296875 C 95.925781 752.351562 95.804688 749.40625 95.746094 746.464844 C 95.683594 742.015625 95.625 737.632812 95.625 733.183594 C 95.625 705.667969 97.367188 678.566406 100.730469 652.011719 C 140.75 338.488281 408.605469 96.046875 733.066406 96.046875 C 1057.523438 96.046875 1325.320312 338.488281 1365.335938 652.011719 C 1368.703125 678.566406 1370.445312 705.667969 1370.445312 733.183594 Z M 1370.445312 733.183594 " fill-opacity="1" fill-rule="nonzero"/></g><g clip-path="url(#ef05149617)"><path fill="#b79ab3" d="M 1370.445312 733.183594 C 1370.445312 766.171875 1367.921875 798.617188 1363.113281 830.28125 C 1361.671875 839.59375 1360.050781 848.847656 1358.1875 858.042969 C 1357.828125 859.964844 1357.464844 861.828125 1357.046875 863.6875 C 1353.980469 878.589844 1350.375 893.25 1346.289062 907.730469 C 1346.230469 907.792969 1346.230469 907.851562 1346.230469 907.972656 C 1343.347656 917.945312 1340.28125 927.859375 1336.976562 937.652344 C 1335.296875 942.699219 1333.492188 947.6875 1331.75 952.613281 C 1328.144531 962.289062 1324.359375 971.84375 1320.394531 981.335938 C 1223.65625 1210.136719 997.199219 1370.566406 733.066406 1370.566406 C 662.105469 1370.566406 603.160156 1360.171875 543.4375 1341.84375 C 585.675781 1279.714844 611.933594 1215.183594 629.480469 1146.6875 L 662.105469 1014.382812 C 702 1064.613281 759.320312 1092.492188 824.695312 1092.492188 C 989.566406 1092.492188 1142.542969 929.960938 1142.542969 713.238281 C 1142.542969 496.511719 985.601562 323.648438 735.410156 323.648438 C 485.214844 323.648438 327.492188 492.546875 327.492188 704.464844 C 327.492188 827.15625 388.058594 917.226562 451.808594 917.226562 C 472.539062 917.226562 486.054688 913.199219 498.792969 891.6875 C 459.738281 850.289062 439.851562 789.726562 439.851562 724.414062 C 439.851562 562.664062 552.992188 446.339844 731.441406 446.339844 C 891.570312 446.339844 999.960938 552.269531 999.960938 718.042969 C 999.960938 866.992188 921.070312 981.757812 810.335938 981.757812 C 748.207031 981.757812 699.597656 945.886719 699.597656 882.136719 C 699.597656 867.773438 702 851.070312 707.527344 833.527344 L 735.410156 741.898438 C 743.398438 716.421875 747.367188 694.128906 747.367188 674.183594 C 747.367188 611.273438 713.117188 578.585938 666.128906 578.585938 C 598.414062 578.585938 555.394531 642.335938 555.394531 731.5625 C 555.394531 769.777344 563.324219 808.050781 573.71875 841.519531 L 509.96875 1116.40625 C 494.046875 1183.339844 488.460938 1252.617188 496.390625 1325.140625 C 330.015625 1258.507812 199.511719 1124.878906 136.664062 958.683594 C 136.664062 958.625 136.601562 958.625 136.601562 958.5625 C 135.222656 954.898438 133.839844 951.171875 132.515625 947.507812 C 129.875 940.058594 127.351562 932.546875 124.945312 924.976562 C 122.601562 917.40625 120.320312 909.714844 118.21875 902.023438 C 117.195312 898.179688 116.175781 894.332031 115.152344 890.488281 C 113.230469 882.734375 111.367188 874.925781 109.683594 867.054688 C 108.902344 863.269531 108.121094 859.421875 107.339844 855.578125 L 107.160156 854.496094 C 106.441406 850.832031 105.78125 847.105469 105.117188 843.320312 C 103.738281 835.507812 102.535156 827.636719 101.453125 819.707031 C 101.453125 819.527344 101.394531 819.347656 101.394531 819.226562 C 100.851562 815.441406 100.371094 811.714844 99.953125 807.929688 C 99.53125 804.324219 99.171875 800.71875 98.808594 797.054688 C 98.449219 794.171875 98.207031 791.289062 98.027344 788.402344 C 97.609375 783.957031 97.246094 779.511719 97.007812 775.003906 C 96.828125 772.902344 96.707031 770.796875 96.648438 768.695312 C 96.464844 766.472656 96.347656 764.25 96.285156 762.027344 C 96.164062 759.800781 96.046875 757.519531 96.046875 755.296875 C 95.925781 752.351562 95.804688 749.40625 95.746094 746.464844 C 95.683594 742.015625 95.625 737.632812 95.625 733.183594 C 95.625 705.667969 97.367188 678.566406 100.730469 652.011719 C 140.628906 338.1875 408.425781 95.746094 733.066406 95.746094 C 1057.703125 95.746094 1325.441406 338.1875 1365.335938 652.011719 C 1368.703125 678.566406 1370.445312 705.667969 1370.445312 733.183594 Z M 1370.445312 733.183594 " fill-opacity="1" fill-rule="nonzero"/></g></svg>