<svg xmlns="http://www.w3.org/2000/svg" xmlns:xlink="http://www.w3.org/1999/xlink" width="2000" zoomAndPan="magnify" viewBox="0 0 1500 1499.999933" height="2000" preserveAspectRatio="xMidYMid meet" version="1.0"><defs><clipPath id="30561c6683"><path d="M 95.625 95.625 L 1370.625 95.625 L 1370.625 1309.125 L 95.625 1309.125 Z M 95.625 95.625 " clip-rule="nonzero"/></clipPath><clipPath id="e122804771"><path d="M 349 110.5 L 1153 110.5 L 1153 625 L 349 625 Z M 349 110.5 " clip-rule="nonzero"/></clipPath></defs><g clip-path="url(#30561c6683)"><path fill="none" d="M 95.625 95.625 L 1370.625 95.625 L 1370.625 1309.125 L 95.625 1309.125 Z M 95.625 95.625 " fill-opacity="1" fill-rule="nonzero"/></g><path fill="#b79ab3" d="M 1376.695312 566.296875 L 1376.695312 566.277344 L 1376.675781 566.214844 C 1367.441406 539.707031 1351.585938 515.664062 1330.09375 496.722656 L 1290.609375 461.78125 C 1288.386719 459.808594 1286.125 457.9375 1283.800781 456.085938 L 1203.265625 392.230469 L 1203.265625 518.050781 L 1224.570312 534.953125 L 1224.652344 535.015625 C 1230.269531 539.480469 1235.511719 544.269531 1240.46875 549.371094 L 1225.558594 561.359375 L 754.8125 939.910156 L 277.464844 561.339844 L 261.484375 548.671875 C 266.171875 543.820312 271.148438 539.210938 276.476562 534.953125 L 298.769531 517.042969 L 298.769531 390.585938 L 214.675781 458.140625 L 171.425781 496.722656 C 150.101562 515.746094 134.367188 539.765625 125.238281 566.195312 L 125.15625 566.335938 L 125.175781 566.359375 C 119.292969 583.488281 116.148438 601.609375 116.148438 620.117188 L 116.148438 1182.894531 C 116.148438 1260.734375 179.285156 1323.871094 257.125 1323.871094 L 1244.953125 1323.871094 C 1322.792969 1323.871094 1385.929688 1260.734375 1385.929688 1182.894531 L 1385.929688 620.570312 C 1385.910156 601.875 1382.699219 583.570312 1376.695312 566.296875 Z M 214.738281 1165.597656 L 214.738281 663.820312 C 214.738281 655.429688 215.4375 647.140625 216.671875 638.976562 L 509.300781 871.039062 Z M 294.492188 1225.28125 L 587.058594 932.695312 L 724.375 1041.589844 C 733.382812 1048.746094 744.179688 1052.261719 755.039062 1052.261719 C 765.957031 1052.261719 776.921875 1048.640625 785.886719 1041.382812 L 918.433594 934.8125 L 1208.902344 1225.28125 Z M 1287.316406 1164.28125 L 995.71875 872.683594 L 1285.382812 639.714844 C 1286.640625 647.878906 1287.316406 656.1875 1287.316406 664.578125 Z M 1287.316406 1164.28125 " fill-opacity="1" fill-rule="nonzero"/><g clip-path="url(#e122804771)"><path fill="#b79ab3" d="M 349.421875 284.855469 L 349.421875 553.75 L 436.273438 622.625 L 436.273438 197.347656 L 1065.824219 197.347656 L 1065.824219 624.828125 L 1152.675781 554.984375 L 1152.675781 153.914062 C 1152.675781 129.933594 1133.238281 110.5 1109.261719 110.5 L 392.835938 110.5 C 368.859375 110.5 349.421875 129.933594 349.421875 153.914062 Z M 349.421875 284.855469 " fill-opacity="1" fill-rule="nonzero"/></g><path fill="#b79ab3" d="M 787.613281 569.875 L 786.070312 569.875 C 774.125 602.449219 752.46875 618.738281 721.105469 618.738281 C 697.578125 618.738281 678.597656 610.203125 664.199219 593.15625 C 649.785156 576.105469 642.585938 552.476562 642.585938 522.308594 C 642.585938 483.253906 652.558594 451.5 672.507812 427.027344 C 692.457031 402.554688 716.5 390.316406 744.652344 390.316406 C 770.050781 390.316406 786.011719 400.292969 792.488281 420.238281 L 793.515625 420.238281 L 796.085938 394.921875 L 853.652344 394.921875 C 845.980469 467.5625 842.132812 515.066406 842.132812 537.402344 C 842.132812 561.277344 848.613281 573.207031 861.566406 573.207031 C 875.203125 573.207031 886.472656 564.179688 895.335938 546.101562 C 904.199219 528.023438 908.644531 504.414062 908.644531 475.253906 C 908.644531 435.355469 895.933594 402.65625 870.535156 377.15625 C 845.117188 351.652344 809.660156 338.902344 764.128906 338.902344 C 715.347656 338.902344 674.8125 355.910156 642.503906 389.925781 C 610.195312 423.941406 594.03125 465.421875 594.03125 514.367188 C 594.03125 561.773438 608.300781 599.121094 636.867188 626.410156 C 665.433594 653.699219 704.859375 667.335938 755.183594 667.335938 C 793.558594 667.335938 828.683594 660.015625 860.558594 645.332031 L 860.558594 694.195312 C 831.398438 706.636719 793.886719 712.867188 748.003906 712.867188 C 685.074219 712.867188 633.867188 694.832031 594.398438 658.757812 C 554.914062 622.6875 535.191406 574.214844 535.191406 513.339844 C 535.191406 451.273438 556.25 399.078125 598.371094 356.792969 C 640.488281 314.511719 694.71875 293.351562 761.0625 293.351562 C 822.453125 293.351562 872.117188 309.761719 910.0625 342.582031 C 948.003906 375.40625 966.988281 418.675781 966.988281 472.394531 C 966.988281 516.570312 955.386719 551.984375 932.191406 578.675781 C 908.992188 605.371094 880.261719 618.71875 845.980469 618.71875 C 829.09375 618.71875 815.378906 614.195312 804.785156 605.164062 C 794.175781 596.136719 788.457031 584.375 787.613281 569.875 Z M 753.578125 434.820312 C 738.238281 434.820312 725.734375 443.5625 716.109375 461.042969 C 706.460938 478.523438 701.648438 498.78125 701.648438 521.792969 C 701.648438 538.164062 704.941406 550.914062 711.5 560.023438 C 718.0625 569.15625 726.554688 573.699219 736.960938 573.699219 C 752.980469 573.699219 765.609375 565.082031 774.824219 547.871094 C 784.035156 530.65625 788.644531 507.621094 788.644531 478.808594 C 788.644531 465.175781 785.457031 454.417969 779.058594 446.585938 C 772.644531 438.75 764.148438 434.820312 753.578125 434.820312 Z M 753.578125 434.820312 " fill-opacity="1" fill-rule="nonzero"/></svg>