<svg xmlns="http://www.w3.org/2000/svg" xmlns:xlink="http://www.w3.org/1999/xlink" width="2000" zoomAndPan="magnify" viewBox="0 0 1500 1499.999933" height="2000" preserveAspectRatio="xMidYMid meet" version="1.0"><defs><clipPath id="220abc5413"><path d="M 95.625 95.625 L 1370.625 95.625 L 1370.625 1370.625 L 95.625 1370.625 Z M 95.625 95.625 " clip-rule="nonzero"/></clipPath></defs><g clip-path="url(#220abc5413)"><path fill="#bb98b6" d="M 468.9375 100.007812 C 401.132812 103.191406 354.828125 114.0625 314.351562 129.917969 C 272.429688 146.253906 236.9375 168.113281 201.625 203.605469 C 166.25 239.101562 144.511719 274.652344 128.355469 316.632812 C 112.679688 357.230469 102.050781 403.535156 99.046875 471.398438 C 96.046875 539.324219 95.386719 561.003906 95.683594 734.085938 C 95.984375 907.109375 96.765625 928.847656 100.007812 996.832031 C 103.253906 1064.636719 114.0625 1110.878906 129.917969 1151.417969 C 146.253906 1193.339844 168.113281 1228.769531 203.605469 1264.144531 C 239.101562 1299.519531 274.652344 1321.199219 316.632812 1337.414062 C 357.171875 1353.089844 403.535156 1363.777344 471.339844 1366.722656 C 539.324219 1369.722656 561.003906 1370.382812 734.027344 1370.023438 C 907.109375 1369.722656 928.789062 1368.941406 996.773438 1365.699219 C 1064.578125 1362.457031 1110.820312 1351.585938 1151.359375 1335.792969 C 1193.277344 1319.398438 1228.769531 1297.597656 1264.085938 1262.101562 C 1299.398438 1226.609375 1321.136719 1191.054688 1337.355469 1149.078125 C 1353.027344 1108.539062 1363.71875 1062.175781 1366.660156 994.429688 C 1369.605469 926.445312 1370.324219 904.707031 1370.023438 731.683594 C 1369.722656 558.660156 1368.882812 536.980469 1365.699219 468.996094 C 1362.457031 401.132812 1351.648438 354.890625 1335.792969 314.351562 C 1319.398438 272.429688 1297.597656 236.996094 1262.101562 201.625 C 1226.609375 166.3125 1191.054688 144.511719 1149.078125 128.355469 C 1108.539062 112.679688 1062.175781 101.992188 994.371094 99.046875 C 926.386719 96.046875 904.644531 95.382812 731.625 95.683594 C 558.601562 95.984375 536.921875 96.765625 468.9375 100.007812 M 476.382812 1251.953125 C 414.285156 1249.25 380.53125 1238.921875 358.011719 1230.273438 C 328.222656 1218.742188 307.023438 1204.929688 284.621094 1182.769531 C 262.28125 1160.488281 248.46875 1139.285156 236.816406 1109.621094 C 228.109375 1087.15625 217.601562 1053.464844 214.65625 991.308594 C 211.472656 924.164062 210.753906 903.984375 210.453125 733.84375 C 210.152344 563.765625 210.753906 543.585938 213.695312 476.382812 C 216.339844 414.285156 226.726562 380.53125 235.375 358.070312 C 246.90625 328.285156 260.660156 307.085938 282.882812 284.683594 C 305.164062 262.34375 326.363281 248.527344 356.089844 236.878906 C 378.550781 228.109375 412.242188 217.660156 474.339844 214.71875 C 541.542969 211.535156 561.664062 210.875 731.804688 210.511719 C 901.945312 210.152344 922.121094 210.753906 989.324219 213.757812 C 1051.425781 216.457031 1085.175781 226.726562 1107.636719 235.4375 C 1137.425781 246.96875 1158.683594 260.660156 1181.027344 282.941406 C 1203.367188 305.222656 1217.242188 326.363281 1228.832031 356.148438 C 1237.601562 378.550781 1248.050781 412.304688 1250.992188 474.339844 C 1254.175781 541.542969 1254.894531 561.722656 1255.195312 731.804688 C 1255.496094 901.945312 1254.894531 922.121094 1251.953125 989.265625 C 1249.25 1051.363281 1238.921875 1085.175781 1230.273438 1107.636719 C 1218.742188 1137.367188 1204.988281 1158.625 1182.707031 1180.964844 C 1160.425781 1203.246094 1139.289062 1217.121094 1109.5 1228.769531 C 1087.097656 1237.539062 1053.347656 1247.988281 991.308594 1250.933594 C 924.105469 1254.117188 903.984375 1254.835938 733.785156 1255.136719 C 563.707031 1255.4375 543.527344 1254.835938 476.324219 1251.894531 M 995.871094 392.242188 C 995.933594 434.464844 1030.285156 468.636719 1072.445312 468.515625 C 1114.664062 468.457031 1148.835938 434.164062 1148.777344 391.945312 C 1148.714844 349.722656 1114.363281 315.550781 1072.144531 315.613281 C 1029.925781 315.671875 995.753906 350.023438 995.8125 392.183594 M 405.636719 733.484375 C 405.996094 914.195312 552.773438 1060.371094 733.425781 1060.011719 C 914.136719 1059.652344 1060.371094 912.933594 1060.011719 732.222656 C 1059.652344 551.574219 912.875 405.335938 732.164062 405.636719 C 551.515625 405.996094 405.277344 552.773438 405.636719 733.484375 M 520.40625 733.246094 C 520.226562 615.953125 615.113281 520.644531 732.402344 520.464844 C 849.695312 520.222656 945.003906 615.113281 945.246094 732.464844 C 945.484375 849.753906 850.535156 945.0625 733.246094 945.246094 C 615.953125 945.484375 520.644531 850.535156 520.464844 733.246094 " fill-opacity="1" fill-rule="nonzero"/></g></svg>