<svg xmlns="http://www.w3.org/2000/svg" xmlns:xlink="http://www.w3.org/1999/xlink" width="2000" zoomAndPan="magnify" viewBox="0 0 1500 1499.999933" height="2000" preserveAspectRatio="xMidYMid meet" version="1.0"><defs><clipPath id="bd0324ac77"><path d="M 101.378906 96 L 1365.128906 96 L 1365.128906 1361 L 101.378906 1361 Z M 101.378906 96 " clip-rule="nonzero"/></clipPath></defs><g clip-path="url(#bd0324ac77)"><path fill="#b79ab3" d="M 1178.230469 1173.519531 L 990.988281 1173.519531 L 990.988281 880.261719 C 990.988281 810.359375 989.738281 720.3125 893.613281 720.3125 C 797.488281 720.3125 781.160156 796.53125 781.160156 875.195312 L 781.160156 1173.519531 L 593.917969 1173.519531 L 593.917969 570.433594 L 773.710938 570.433594 L 773.710938 652.851562 L 776.214844 652.851562 C 812.863281 590.160156 881.039062 552.734375 953.5625 555.417969 C 1143.367188 555.417969 1178.351562 680.265625 1178.351562 842.65625 L 1178.351562 1173.519531 Z M 382.542969 488.019531 C 322.53125 488.019531 273.84375 439.390625 273.84375 379.378906 C 273.84375 319.367188 322.472656 270.679688 382.480469 270.679688 C 442.492188 270.679688 491.179688 319.308594 491.179688 379.320312 C 491.179688 439.328125 442.550781 488.019531 382.542969 488.019531 M 476.222656 1173.519531 L 288.742188 1173.519531 L 288.742188 570.433594 L 476.222656 570.433594 Z M 1271.613281 96.726562 L 194.644531 96.726562 C 143.75 96.191406 101.976562 136.953125 101.378906 187.847656 L 101.378906 1269.285156 C 101.976562 1320.238281 143.691406 1361 194.644531 1360.464844 L 1271.613281 1360.464844 C 1322.625 1361.117188 1364.519531 1320.296875 1365.234375 1269.285156 L 1365.234375 187.785156 C 1364.519531 136.773438 1322.625 96.011719 1271.613281 96.667969 " fill-opacity="1" fill-rule="nonzero"/></g></svg>